<svg xmlns="http://www.w3.org/2000/svg" viewBox="0 0 80 70" width="80" height="70">
  <defs>
    <linearGradient id="clawClosed" x1="0" y1="0" x2="0" y2="1">
      <stop offset="0%" stop-color="#7ab8e0"/>
      <stop offset="100%" stop-color="#3a7ea4"/>
    </linearGradient>
    <radialGradient id="clawHighlightClosed" cx="0.35" cy="0.25" r="0.4">
      <stop offset="0%" stop-color="#ffffff" stop-opacity="0.25"/>
      <stop offset="100%" stop-color="#ffffff" stop-opacity="0"/>
    </radialGradient>
  </defs>
  <!-- Shadow -->
  <path d="M16 12 Q12 37 22 57" fill="none" stroke="#2a5e84" stroke-width="10" stroke-linecap="round" opacity="0.1"/>
  <path d="M64 12 Q68 37 58 57" fill="none" stroke="#2a5e84" stroke-width="10" stroke-linecap="round" opacity="0.1"/>
  <!-- Left claw -->
  <path d="M16 10 Q12 35 22 55" fill="none" stroke="url(#clawClosed)" stroke-width="10" stroke-linecap="round"/>
  <path d="M16 10 Q12 35 22 55" fill="none" stroke="url(#clawHighlightClosed)" stroke-width="10" stroke-linecap="round"/>
  <!-- Right claw -->
  <path d="M64 10 Q68 35 58 55" fill="none" stroke="url(#clawClosed)" stroke-width="10" stroke-linecap="round"/>
  <path d="M64 10 Q68 35 58 55" fill="none" stroke="url(#clawHighlightClosed)" stroke-width="10" stroke-linecap="round"/>
  <!-- Left joint -->
  <circle cx="24" cy="57" r="7" fill="#2a6e94"/>
  <circle cx="22" cy="55" r="3" fill="#7ab8e0" opacity="0.3"/>
  <circle cx="24" cy="57" r="4" fill="none" stroke="#1a5e84" stroke-width="1" opacity="0.5"/>
  <!-- Right joint -->
  <circle cx="56" cy="57" r="7" fill="#2a6e94"/>
  <circle cx="54" cy="55" r="3" fill="#7ab8e0" opacity="0.3"/>
  <circle cx="56" cy="57" r="4" fill="none" stroke="#1a5e84" stroke-width="1" opacity="0.5"/>
  <!-- Grip teeth (interlocking) -->
  <path d="M18 52 L16 48" fill="none" stroke="#1a5e84" stroke-width="1.5" stroke-linecap="round"/>
  <path d="M20 54 L18 50" fill="none" stroke="#1a5e84" stroke-width="1.5" stroke-linecap="round"/>
  <path d="M60 54 L62 50" fill="none" stroke="#1a5e84" stroke-width="1.5" stroke-linecap="round"/>
  <path d="M62 52 L64 48" fill="none" stroke="#1a5e84" stroke-width="1.5" stroke-linecap="round"/>
</svg>
