<svg xmlns="http://www.w3.org/2000/svg" viewBox="0 0 400 200">
  <g id="scene-reef-mid">
    <path d="M0 200 L0 120 Q40 104 80 116 Q120 92 160 104 Q200 84 240 98 Q280 80 320 94 Q360 86 400 100 L400 200 Z" fill="#1E5A7A" opacity="0.9"/>
    <path d="M0 200 L0 140 Q50 126 100 136 Q150 112 200 128 Q250 116 300 130 Q350 120 400 132 L400 200 Z" fill="#2E7A96" opacity="0.75"/>
    <ellipse cx="70" cy="138" rx="14" ry="10" fill="#E85D75" stroke="#A83A52" stroke-width="1.5"/>
    <ellipse cx="330" cy="140" rx="12" ry="9" fill="#A97BCA" stroke="#7A54A0" stroke-width="1.5"/>
    <ellipse cx="190" cy="128" rx="10" ry="8" fill="#C79BDB" stroke="#7A54A0" stroke-width="1.5"/>
    <path d="M120 150 Q124 134 128 150" fill="none" stroke="#1E5A7A" stroke-width="2" stroke-linecap="round"/>
    <path d="M270 142 Q274 126 278 142" fill="none" stroke="#2E7A96" stroke-width="2" stroke-linecap="round"/>
  </g>
</svg>
