<svg xmlns="http://www.w3.org/2000/svg" viewBox="0 0 240 200">
  <g id="terrain-sand-rock">
    <path d="M30 190 Q26 170 30 155 Q36 138 52 128 Q70 118 95 114 Q120 110 150 114 Q178 120 198 132 Q214 144 220 162 Q224 176 220 190Z" fill="#D4A373" stroke="#A47551" stroke-width="2.5" stroke-linejoin="round"/>
    <path d="M50 140 Q60 128 80 122 Q100 116 125 118 Q148 120 168 128 Q185 136 195 148" fill="none" stroke="#E2C290" stroke-width="3" opacity="0.6"/>
    <path d="M65 155 Q80 145 105 140 Q130 136 155 142 Q175 148 188 158" fill="none" stroke="#E2C290" stroke-width="2.5" opacity="0.4"/>
    <ellipse cx="125" cy="192" rx="95" ry="6" fill="#A8E6CF" opacity="0.2"/>
    <circle cx="80" cy="135" r="4" fill="#F0D9B5" opacity="0.5"/>
    <circle cx="160" cy="138" r="3.5" fill="#F0D9B5" opacity="0.5"/>
    <path d="M100 125 Q108 120 118 118" fill="none" stroke="#C4956A" stroke-width="2" opacity="0.4"/>
  </g>
</svg>
