<svg xmlns="http://www.w3.org/2000/svg" viewBox="0 0 120 200">
  <g id="scene-seaweed-loop-01">
    <path d="M60 180 Q14 150 16 104 Q18 58 60 28 Q102 58 104 104 Q106 150 60 180 Z" fill="none" stroke="#2D8B46" stroke-width="10" stroke-linecap="round"/>
    <path d="M60 178 Q22 150 23 108 Q24 66 60 38 Q96 66 97 108 Q98 150 60 178 Z" fill="none" stroke="#3AA85A" stroke-width="5"/>
    <circle cx="16" cy="104" r="6" fill="#3AA85A" stroke="#1A6B3A" stroke-width="1.5"/>
    <circle cx="104" cy="104" r="6" fill="#3AA85A" stroke="#1A6B3A" stroke-width="1.5"/>
    <circle cx="60" cy="28" r="6" fill="#3AA85A" stroke="#1A6B3A" stroke-width="1.5"/>
    <circle cx="34" cy="60" r="5" fill="#2D8B46"/>
    <circle cx="88" cy="150" r="5" fill="#2D8B46"/>
    <path d="M60 120 Q48 108 52 96 Q56 88 60 92" fill="none" stroke="#3AA85A" stroke-width="3" stroke-linecap="round"/>
  </g>
</svg>
