<svg xmlns="http://www.w3.org/2000/svg" viewBox="0 0 320 200">
  <g id="scene-submarine">
    <path d="M62 122 Q40 96 34 108 Q30 130 58 142 Z" fill="#E8781E" stroke="#A8500F" stroke-width="3" stroke-linejoin="round"/>
    <ellipse cx="36" cy="120" rx="5" ry="20" fill="#3A5A78" stroke="#243B52" stroke-width="2"/>
    <ellipse cx="36" cy="120" rx="19" ry="5" fill="#3A5A78" stroke="#243B52" stroke-width="2"/>
    <circle cx="36" cy="120" r="5" fill="#FFD966" stroke="#A8500F" stroke-width="2"/>
    <path d="M70 132 Q64 86 128 74 Q192 64 258 78 Q304 92 300 134 Q296 172 214 178 Q120 184 74 160 Z" fill="#F08A24" stroke="#A8500F" stroke-width="3" stroke-linejoin="round"/>
    <path d="M96 112 Q96 88 150 80 Q206 74 252 86 Q286 96 284 118 Q282 102 246 92 Q192 80 140 86 Q100 94 96 112 Z" fill="#FFB25C" opacity="0.6"/>
    <path d="M82 150 Q128 176 210 176 Q272 174 292 150 Q280 168 214 170 Q136 172 96 158 Z" fill="#FFF3DC" stroke="#E8D5A8" stroke-width="2"/>
    <rect x="118" y="118" width="104" height="30" rx="15" fill="#F5B73C" stroke="#A8500F" stroke-width="2.5"/>
    <path d="M68 128 Q68 138 88 144 Q104 150 120 146 L120 136 Q104 140 90 134 Q74 128 68 128 Z" fill="#3A5A78"/>
    <ellipse cx="196" cy="88" rx="50" ry="32" fill="#A8E6F5" stroke="#2E86AB" stroke-width="3"/>
    <ellipse cx="196" cy="92" rx="44" ry="26" fill="none" stroke="#FFF3DC" stroke-width="4" opacity="0.85"/>
    <path d="M160 74 Q176 64 200 64 Q224 66 234 76 Q216 70 194 70 Q174 72 160 74 Z" fill="#FFFFFF" opacity="0.55"/>
    <circle cx="98" cy="120" r="9" fill="#A8E6F5" stroke="#2E86AB" stroke-width="2.5"/>
    <circle cx="98" cy="120" r="3.5" fill="#FFFFFF" opacity="0.5"/>
    <circle cx="252" cy="120" r="9" fill="#A8E6F5" stroke="#2E86AB" stroke-width="2.5"/>
    <circle cx="252" cy="120" r="3.5" fill="#FFFFFF" opacity="0.5"/>
    <rect x="108" y="40" width="10" height="36" rx="4" fill="#3A5A78" stroke="#243B52" stroke-width="2"/>
    <rect x="104" y="28" width="18" height="14" rx="3" fill="#FFD966" stroke="#A8500F" stroke-width="2"/>
    <path d="M296 128 L312 118 L314 132 L304 140 L298 134 Z" fill="#E8781E" stroke="#A8500F" stroke-width="2.5" stroke-linejoin="round"/>
    <path d="M312 118 Q318 112 316 106 Q314 100 308 100 L306 106 Q310 110 310 116 Z" fill="#FFD966" stroke="#A8500F" stroke-width="2"/>
    <circle cx="90" cy="140" r="2" fill="#A8500F" opacity="0.5"/>
    <circle cx="140" cy="152" r="2" fill="#A8500F" opacity="0.5"/>
    <circle cx="190" cy="156" r="2" fill="#A8500F" opacity="0.5"/>
    <circle cx="240" cy="154" r="2" fill="#A8500F" opacity="0.5"/>
  </g>
</svg>
